<svg width="38" height="38" viewBox="0 0 38 38" fill="none" xmlns="http://www.w3.org/2000/svg">
<path d="M19 19C19.8709 19 20.6164 18.6899 21.2365 18.0698C21.8566 17.4496 22.1667 16.7041 22.1667 15.8333C22.1667 14.9625 21.8566 14.217 21.2365 13.5968C20.6164 12.9767 19.8709 12.6666 19 12.6666C18.1292 12.6666 17.3837 12.9767 16.7636 13.5968C16.1434 14.217 15.8334 14.9625 15.8334 15.8333C15.8334 16.7041 16.1434 17.4496 16.7636 18.0698C17.3837 18.6899 18.1292 19 19 19ZM19 30.6375C22.2195 27.6819 24.6077 24.9968 26.1646 22.5823C27.7216 20.1677 28.5 18.0236 28.5 16.15C28.5 13.2736 27.583 10.9184 25.749 9.08433C23.915 7.25031 21.6653 6.33329 19 6.33329C16.3348 6.33329 14.0851 7.25031 12.2511 9.08433C10.4171 10.9184 9.50004 13.2736 9.50004 16.15C9.50004 18.0236 10.2785 20.1677 11.8355 22.5823C13.3924 24.9968 15.7806 27.6819 19 30.6375ZM19 34.8333C14.7514 31.218 11.5782 27.86 9.48025 24.7593C7.38233 21.6586 6.33337 18.7888 6.33337 16.15C6.33337 12.1916 7.60664 9.03815 10.1532 6.68954C12.6997 4.34093 15.6487 3.16663 19 3.16663C22.3514 3.16663 25.3004 4.34093 27.8469 6.68954C30.3934 9.03815 31.6667 12.1916 31.6667 16.15C31.6667 18.7888 30.6177 21.6586 28.5198 24.7593C26.4219 27.86 23.2487 31.218 19 34.8333Z" fill="#A21A16"/>
</svg>
